<mxfile host="app.diagrams.net" modified="2023-09-12T12:36:02.151Z" agent="Mozilla/5.0 (Windows NT 10.0; Win64; x64) AppleWebKit/537.36 (KHTML, like Gecko) Chrome/116.0.0.0 Safari/537.36 Edg/116.0.1938.76" etag="FCHxwkit7ecYGCd_fG_g" version="21.7.4" type="device">
  <diagram name="Page-1" id="upoOHrW2UucQuBE2hp9n">
    <mxGraphModel dx="1389" dy="951" grid="1" gridSize="10" guides="1" tooltips="1" connect="1" arrows="1" fold="1" page="1" pageScale="1" pageWidth="4681" pageHeight="3300" math="0" shadow="0">
      <root>
        <mxCell id="0" />
        <mxCell id="1" parent="0" />
        <mxCell id="RQ8LQTlV_PO3ozZtlbeF-3" style="edgeStyle=orthogonalEdgeStyle;rounded=0;orthogonalLoop=1;jettySize=auto;html=1;entryX=0.5;entryY=1;entryDx=0;entryDy=0;" parent="1" source="RQ8LQTlV_PO3ozZtlbeF-1" target="RQ8LQTlV_PO3ozZtlbeF-2" edge="1">
          <mxGeometry relative="1" as="geometry" />
        </mxCell>
        <mxCell id="RQ8LQTlV_PO3ozZtlbeF-1" value="" style="shape=mxgraph.cisco.people.androgenous_person;html=1;pointerEvents=1;dashed=0;fillColor=#036897;strokeColor=#ffffff;strokeWidth=2;verticalLabelPosition=bottom;verticalAlign=top;align=center;outlineConnect=0;" parent="1" vertex="1">
          <mxGeometry x="850" y="1040" width="70" height="80" as="geometry" />
        </mxCell>
        <mxCell id="RQ8LQTlV_PO3ozZtlbeF-9" style="rounded=0;orthogonalLoop=1;jettySize=auto;html=1;exitX=0;exitY=0.5;exitDx=0;exitDy=0;entryX=1.097;entryY=0.44;entryDx=0;entryDy=0;entryPerimeter=0;" parent="1" source="RQ8LQTlV_PO3ozZtlbeF-2" target="RQ8LQTlV_PO3ozZtlbeF-5" edge="1">
          <mxGeometry relative="1" as="geometry" />
        </mxCell>
        <mxCell id="RQ8LQTlV_PO3ozZtlbeF-12" style="edgeStyle=orthogonalEdgeStyle;rounded=0;orthogonalLoop=1;jettySize=auto;html=1;exitX=1;exitY=0.5;exitDx=0;exitDy=0;entryX=0;entryY=0.5;entryDx=0;entryDy=0;" parent="1" source="RQ8LQTlV_PO3ozZtlbeF-2" target="RQ8LQTlV_PO3ozZtlbeF-11" edge="1">
          <mxGeometry relative="1" as="geometry" />
        </mxCell>
        <mxCell id="RQ8LQTlV_PO3ozZtlbeF-15" style="rounded=0;orthogonalLoop=1;jettySize=auto;html=1;exitX=0;exitY=0.5;exitDx=0;exitDy=0;entryX=1;entryY=0.5;entryDx=0;entryDy=0;" parent="1" source="RQ8LQTlV_PO3ozZtlbeF-2" target="RQ8LQTlV_PO3ozZtlbeF-14" edge="1">
          <mxGeometry relative="1" as="geometry" />
        </mxCell>
        <mxCell id="RQ8LQTlV_PO3ozZtlbeF-21" style="rounded=0;orthogonalLoop=1;jettySize=auto;html=1;exitX=1;exitY=0.5;exitDx=0;exitDy=0;entryX=0;entryY=0.5;entryDx=0;entryDy=0;" parent="1" source="RQ8LQTlV_PO3ozZtlbeF-2" target="RQ8LQTlV_PO3ozZtlbeF-20" edge="1">
          <mxGeometry relative="1" as="geometry">
            <Array as="points">
              <mxPoint x="1000" y="1000" />
            </Array>
          </mxGeometry>
        </mxCell>
        <mxCell id="ZG8WPkFlCRkD547cb5lm-3" style="edgeStyle=orthogonalEdgeStyle;rounded=0;orthogonalLoop=1;jettySize=auto;html=1;exitX=0;exitY=0.5;exitDx=0;exitDy=0;entryX=1;entryY=0.5;entryDx=0;entryDy=0;" edge="1" parent="1" source="RQ8LQTlV_PO3ozZtlbeF-2" target="ZG8WPkFlCRkD547cb5lm-2">
          <mxGeometry relative="1" as="geometry" />
        </mxCell>
        <mxCell id="RQ8LQTlV_PO3ozZtlbeF-2" value="" style="shape=image;html=1;verticalAlign=top;verticalLabelPosition=bottom;labelBackgroundColor=#ffffff;imageAspect=0;aspect=fixed;image=https://cdn4.iconfinder.com/data/icons/ionicons/512/icon-social-github-128.png" parent="1" vertex="1">
          <mxGeometry x="840" y="790" width="90" height="90" as="geometry" />
        </mxCell>
        <mxCell id="RQ8LQTlV_PO3ozZtlbeF-4" value="&lt;font size=&quot;1&quot; style=&quot;&quot;&gt;&lt;b style=&quot;font-size: 12px;&quot;&gt;Push&lt;/b&gt;&lt;/font&gt;" style="text;html=1;strokeColor=none;fillColor=none;align=center;verticalAlign=middle;whiteSpace=wrap;rounded=0;" parent="1" vertex="1">
          <mxGeometry x="890" y="950" width="60" height="30" as="geometry" />
        </mxCell>
        <mxCell id="RQ8LQTlV_PO3ozZtlbeF-5" value="" style="shape=image;verticalLabelPosition=bottom;labelBackgroundColor=default;verticalAlign=top;aspect=fixed;imageAspect=0;image=https://seeklogo.com/images/D/deepsource-logo-A59B37CB1C-seeklogo.com.png;" parent="1" vertex="1">
          <mxGeometry x="651.2" y="680" width="68.8" height="80" as="geometry" />
        </mxCell>
        <mxCell id="RQ8LQTlV_PO3ozZtlbeF-10" value="&lt;font size=&quot;1&quot; style=&quot;&quot;&gt;&lt;b style=&quot;font-size: 12px;&quot;&gt;Analysts Code&lt;/b&gt;&lt;/font&gt;" style="text;html=1;strokeColor=none;fillColor=none;align=center;verticalAlign=middle;whiteSpace=wrap;rounded=0;rotation=45;" parent="1" vertex="1">
          <mxGeometry x="740" y="750" width="100" height="30" as="geometry" />
        </mxCell>
        <mxCell id="RQ8LQTlV_PO3ozZtlbeF-33" style="edgeStyle=orthogonalEdgeStyle;rounded=0;orthogonalLoop=1;jettySize=auto;html=1;exitX=0.5;exitY=0;exitDx=0;exitDy=0;" parent="1" source="RQ8LQTlV_PO3ozZtlbeF-11" target="RQ8LQTlV_PO3ozZtlbeF-32" edge="1">
          <mxGeometry relative="1" as="geometry" />
        </mxCell>
        <mxCell id="RQ8LQTlV_PO3ozZtlbeF-37" style="edgeStyle=orthogonalEdgeStyle;rounded=0;orthogonalLoop=1;jettySize=auto;html=1;exitX=1;exitY=0.5;exitDx=0;exitDy=0;" parent="1" source="RQ8LQTlV_PO3ozZtlbeF-11" target="RQ8LQTlV_PO3ozZtlbeF-29" edge="1">
          <mxGeometry relative="1" as="geometry" />
        </mxCell>
        <mxCell id="RQ8LQTlV_PO3ozZtlbeF-11" value="" style="shape=image;html=1;verticalAlign=top;verticalLabelPosition=bottom;labelBackgroundColor=#ffffff;imageAspect=0;aspect=fixed;image=https://cdn2.iconfinder.com/data/icons/css-vol-1/24/circleci-128.png" parent="1" vertex="1">
          <mxGeometry x="1120" y="795" width="80" height="80" as="geometry" />
        </mxCell>
        <mxCell id="RQ8LQTlV_PO3ozZtlbeF-13" value="&lt;font size=&quot;1&quot; style=&quot;&quot;&gt;&lt;b style=&quot;font-size: 12px;&quot;&gt;Build&lt;/b&gt;&lt;/font&gt;" style="text;html=1;strokeColor=none;fillColor=none;align=center;verticalAlign=middle;whiteSpace=wrap;rounded=0;" parent="1" vertex="1">
          <mxGeometry x="1000" y="795" width="60" height="30" as="geometry" />
        </mxCell>
        <mxCell id="RQ8LQTlV_PO3ozZtlbeF-14" value="" style="shape=image;html=1;verticalAlign=top;verticalLabelPosition=bottom;labelBackgroundColor=#ffffff;imageAspect=0;aspect=fixed;image=https://cdn1.iconfinder.com/data/icons/unicons-line-vol-3/24/discord-128.png" parent="1" vertex="1">
          <mxGeometry x="641" y="920" width="79" height="79" as="geometry" />
        </mxCell>
        <mxCell id="RQ8LQTlV_PO3ozZtlbeF-16" value="&lt;font size=&quot;1&quot; style=&quot;&quot;&gt;&lt;b style=&quot;font-size: 12px;&quot;&gt;Notification&lt;/b&gt;&lt;/font&gt;" style="text;html=1;strokeColor=none;fillColor=none;align=center;verticalAlign=middle;whiteSpace=wrap;rounded=0;rotation=-45;" parent="1" vertex="1">
          <mxGeometry x="740" y="890" width="100" height="30" as="geometry" />
        </mxCell>
        <mxCell id="RQ8LQTlV_PO3ozZtlbeF-25" style="edgeStyle=orthogonalEdgeStyle;rounded=0;orthogonalLoop=1;jettySize=auto;html=1;exitX=1;exitY=0.5;exitDx=0;exitDy=0;entryX=0;entryY=0.5;entryDx=0;entryDy=0;" parent="1" source="RQ8LQTlV_PO3ozZtlbeF-20" target="RQ8LQTlV_PO3ozZtlbeF-24" edge="1">
          <mxGeometry relative="1" as="geometry" />
        </mxCell>
        <mxCell id="RQ8LQTlV_PO3ozZtlbeF-20" value="" style="shape=image;verticalLabelPosition=bottom;labelBackgroundColor=default;verticalAlign=top;aspect=fixed;imageAspect=0;image=https://icons-for-free.com/download-icon-argocd-1331550886883580947_512.png;" parent="1" vertex="1">
          <mxGeometry x="1120" y="960" width="80" height="80" as="geometry" />
        </mxCell>
        <mxCell id="RQ8LQTlV_PO3ozZtlbeF-22" value="&lt;font size=&quot;1&quot; style=&quot;&quot;&gt;&lt;b style=&quot;font-size: 12px;&quot;&gt;CD Sync&lt;/b&gt;&lt;/font&gt;" style="text;html=1;strokeColor=none;fillColor=none;align=center;verticalAlign=middle;whiteSpace=wrap;rounded=0;" parent="1" vertex="1">
          <mxGeometry x="1020" y="969" width="60" height="30" as="geometry" />
        </mxCell>
        <mxCell id="RQ8LQTlV_PO3ozZtlbeF-24" value="" style="editableCssRules=.*;html=1;shape=image;verticalLabelPosition=bottom;labelBackgroundColor=#ffffff;verticalAlign=top;aspect=fixed;imageAspect=0;image=data:image/svg+xml,PHN2ZyB4bWxucz0iaHR0cDovL3d3dy53My5vcmcvMjAwMC9zdmciIHhtbG5zOnY9Imh0dHBzOi8vdmVjdGEuaW8vbmFubyIgd2lkdGg9IjcwMi44NDYzMTM0NzY1NjI1IiBoZWlnaHQ9IjY4MS45NjcxMDIwNTA3ODEyIiB2aWV3Qm94PSIxMC4wMDEwMjYxNTM1NjQ0NTMgMTAuMDAwOTMzNjQ3MTU1NzYyIDcwMi44NDYzMTM0NzY1NjI1IDY4MS45NjcxMDIwNTA3ODEyIj4mI3hhOwk8c3R5bGUgdHlwZT0idGV4dC9jc3MiPiYjeGE7CS5zdDB7ZmlsbDojMzI2Y2U1O30mI3hhOwkuc3Qxe2ZpbGw6I2ZmZjt9JiN4YTsJPC9zdHlsZT4mI3hhOwk8cGF0aCBjbGFzcz0ic3QwIiBkPSJNMzU4Ljk4NyAxMC4wNmMtNi4yMTMuMzEzLTEyLjMwMSAxLjg1NC0xNy45MDYgNC41MzFMOTYuNzM3IDEzMS4zNDJjLTEyLjgxMSA2LjExOC0yMi4xMTYgMTcuNjg5LTI1LjI4MSAzMS40MzhsLTYwLjI4MSAyNjIuMjVjLTIuODEyIDEyLjIwNy0uNTI0IDI1LjAyNCA2LjM0NCAzNS41MzFhNDYuMzUgNDYuMzUgMCAwIDAgMi42NTYgMy42ODhsMTY5LjEyNSAyMTAuMjgxYzguODY4IDExLjAyMiAyMi4zMTMgMTcuNDQgMzYuNTMxIDE3LjQzOGwyNzEuMjE5LS4wNjJjMTQuMjEyLjAxIDI3LjY1Ny02LjM5NiAzNi41MzEtMTcuNDA2bDE2OS4wNjMtMjEwLjMxM2M4Ljg3My0xMS4wMjggMTIuMTk3LTI1LjQ2NCA5LjAzMS0zOS4yMTlsLTYwLjM3NS0yNjIuMjVjLTMuMTY1LTEzLjc0OC0xMi40Ny0yNS4zMTktMjUuMjgxLTMxLjQzN0wzODEuNjQzIDE0LjU5MmMtNy4wNS0zLjM2OC0xNC44NDEtNC45MjYtMjIuNjU2LTQuNTMxeiIvPiYjeGE7CTxwYXRoIGNsYXNzPSJzdDEgc3QyIiBkPSJNMzYxLjQwOCA5OS4zMDhjLTguMDc3LjAwMS0xNC42MjYgNy4yNzYtMTQuNjI1IDE2LjI1IDAgLjEzOC4wMjguMjY5LjAzMS40MDYtLjAxMiAxLjIxOS0uMDcxIDIuNjg4LS4wMzEgMy43NS4xOTMgNS4xNzYgMS4zMjEgOS4xMzcgMiAxMy45MDYgMS4yMyAxMC4yMDcgMi4yNjEgMTguNjY3IDEuNjI1IDI2LjUzMS0uNjE5IDIuOTY1LTIuODAzIDUuNjc3LTQuNzUgNy41NjNsLS4zNDQgNi4xODhjLTguNzc3LjcyNy0xNy42MTIgMi4wNTktMjYuNDM3IDQuMDYzLTM3Ljk3NSA4LjYyMi03MC42NyAyOC4xODMtOTUuNTYyIDU0LjU5NC0xLjYxNS0xLjEwMi00LjQ0MS0zLjEyOS01LjI4MS0zLjc1LTIuNjExLjM1My01LjI1IDEuMTU4LTguNjg3LS44NDQtNi41NDUtNC40MDYtMTIuNTA2LTEwLjQ4Ny0xOS43MTktMTcuODEyLTMuMzA1LTMuNTA0LTUuNjk4LTYuODQxLTkuNjI1LTEwLjIxOS0uODkyLS43NjctMi4yNTMtMS44MDUtMy4yNS0yLjU5NC0zLjA3LTIuNDQ4LTYuNjkxLTMuNzI0LTEwLjE4Ny0zLjg0NC00LjQ5Ni0uMTU0LTguODI0IDEuNjA0LTExLjY1NiA1LjE1Ni01LjAzNSA2LjMxNS0zLjQyMyAxNS45NjggMy41OTQgMjEuNTYzLjA3MS4wNTcuMTQ3LjEwMS4yMTkuMTU2Ljk2NC43ODIgMi4xNDUgMS43ODMgMy4wMzEgMi40MzggNC4xNjcgMy4wNzcgNy45NzMgNC42NTEgMTIuMTI1IDcuMDk0IDguNzQ3IDUuNDAyIDE1Ljk5OCA5Ljg4MSAyMS43NSAxNS4yODEgMi4yNDYgMi4zOTQgMi42MzkgNi42MTMgMi45MzggOC40MzhsNC42ODggNC4xODhjLTI1LjA5MyAzNy43NjQtMzYuNzA3IDg0LjQwOS0yOS44NDQgMTMxLjkzOGwtNi4xMjUgMS43ODFjLTEuNjE0IDIuMDg1LTMuODk1IDUuMzY1LTYuMjgxIDYuMzQ0LTcuNTI1IDIuMzctMTUuOTk0IDMuMjQxLTI2LjIxOSA0LjMxMy00LjguMzk5LTguOTQyLjE2MS0xNC4wMzEgMS4xMjUtMS4xMi4yMTItMi42ODEuNjE5LTMuOTA2LjkwNi0uMDQzLjAwOS0uMDgyLjAyMi0uMTI1LjAzMS0uMDY3LjAxNS0uMTU1LjA0OC0uMjE5LjA2My04LjYyIDIuMDgzLTE0LjE1OCAxMC4wMDYtMTIuMzc1IDE3LjgxM3MxMC4yMDMgMTIuNTU3IDE4Ljg3NSAxMC42ODhjLjA2My0uMDE0LjE1NC0uMDE3LjIxOS0uMDMxLjA5OC0uMDIyLjE4NC0uMDcuMjgxLS4wOTQgMS4yMDktLjI2NSAyLjcyNC0uNTYxIDMuNzgxLS44NDQgNS4wMDMtMS4zNCA4LjYyNy0zLjMwOCAxMy4xMjUtNS4wMzEgOS42NzctMy40NzEgMTcuNjkyLTYuMzcgMjUuNS03LjUgMy4yNjEtLjI1NSA2LjY5NyAyLjAxMiA4LjQwNiAyLjk2OWw2LjM3NS0xLjA5NGMxNC42NyA0NS40ODMgNDUuNDE0IDgyLjI0NSA4NC4zNDQgMTA1LjMxMmwtMi42NTYgNi4zNzVjLjk1NyAyLjQ3NSAyLjAxMyA1LjgyNSAxLjMgOC4yNjktMi44MzkgNy4zNjEtNy43MDEgMTUuMTMxLTEzLjIzOCAyMy43OTMtMi42ODEgNC4wMDItNS40MjUgNy4xMDgtNy44NDQgMTEuNjg4LS41NzkgMS4wOTYtMS4zMTYgMi43NzktMS44NzUgMy45MzgtMy43NTkgOC4wNDItMS4wMDIgMTcuMzA1IDYuMjE5IDIwLjc4MSA3LjI2NiAzLjQ5OCAxNi4yODQtLjE5MSAyMC4xODctOC4yNS4wMDYtLjAxMS4wMjYtLjAyLjAzMS0uMDMxcy0uMDA0LS4wMjMgMC0uMDMxYy41NTYtMS4xNDMgMS4zNDQtMi42NDQgMS44MTMtMy43MTkgMi4wNzItNC43NDcgMi43NjItOC44MTUgNC4yMTktMTMuNDA2IDMuODctOS43MiA1Ljk5Ni0xOS45MTkgMTEuMzIzLTI2LjI3NCAxLjQ1OS0xLjc0IDMuODM3LTIuNDA5IDYuMzAyLTMuMDdsMy4zMTMtNmMzMy45MzggMTMuMDI3IDcxLjkyNyAxNi41MjIgMTA5Ljg3NSA3LjkwNmExODkuNzcgMTg5Ljc3IDAgMCAwIDI1LjA5NC03LjU2MmwzLjEyNSA1LjYyNWMyLjUwNi44MTUgNS4yNCAxLjIzNiA3LjQ2OSA0LjUzMSAzLjk4NSA2LjgwOSA2LjcxMSAxNC44NjQgMTAuMDMxIDI0LjU5NCAxLjQ1NyA0LjU5MSAyLjE3OCA4LjY1OSA0LjI1IDEzLjQwNi40NzIgMS4wODIgMS4yNTYgMi42MDUgMS44MTMgMy43NSAzLjg5NSA4LjA4NSAxMi45NDIgMTEuNzg3IDIwLjIxOSA4LjI4MSA3LjIxOS0zLjQ3OCA5Ljk4LTEyLjc0IDYuMjE5LTIwLjc4MWwtMS45MDYtMy45MzdjLTIuNDE5LTQuNTgtNS4xNjMtNy42NTQtNy44NDQtMTEuNjU2LTUuNTM3LTguNjYyLTEwLjEzLTE1Ljg1OC0xMi45NjktMjMuMjE5LTEuMTg3LTMuNzk3LjItNi4xNTggMS4xMjUtOC42MjUtLjU1NC0uNjM1LTEuNzM5LTQuMjItMi40MzctNS45MDYgNDAuNDU3LTIzLjg4OCA3MC4yOTktNjIuMDIxIDg0LjMxMy0xMDYuMDYyIDEuODkyLjI5NyA1LjE4Mi44NzkgNi4yNSAxLjA5NCAyLjItMS40NTEgNC4yMjItMy4zNDQgOC4xODgtMy4wMzEgNy44MDggMS4xMjkgMTUuODIzIDQuMDMgMjUuNSA3LjUgNC40OTggMS43MjMgOC4xMjIgMy43MjMgMTMuMTI1IDUuMDYzIDEuMDU3LjI4MyAyLjU3Mi41NDcgMy43ODEuODEzLjA5Ny4wMjQuMTgzLjA3MS4yODEuMDk0LjA2NS4wMTUuMTU2LjAxNy4yMTkuMDMxIDguNjcyIDEuODY3IDE3LjA5NC0yLjg3OSAxOC44NzUtMTAuNjg3cy0zLjc1NC0xNS43MzItMTIuMzc1LTE3LjgxMmMtMS4yNTQtLjI4NS0zLjAzMi0uNzY5LTQuMjUtMS01LjA4OS0uOTY0LTkuMjMxLS43MjYtMTQuMDMxLTEuMTI1LTEwLjIyNS0xLjA3MS0xOC42OTMtMS45NDMtMjYuMjE5LTQuMzEyLTMuMDY4LTEuMTktNS4yNTEtNC44NDEtNi4zMTMtNi4zNDRsLTUuOTA2LTEuNzE5YzMuMDYyLTIyLjE1NCAyLjIzNy00NS4yMTEtMy4wNjItNjguMjgxLTUuMzQ4LTIzLjI4NS0xNC44LTQ0LjU4MS0yNy40MDYtNjMuMzQ0bDUuMTg4LTQuNjU2Yy4yMzctMi42MjQuMDMzLTUuMzc2IDIuNzUtOC4yODEgNS43NTEtNS40MDEgMTMuMDAzLTkuODc5IDIxLjc1LTE1LjI4MSA0LjE1Mi0yLjQ0MyA3Ljk5LTQuMDE3IDEyLjE1Ni03LjA5NC45NDItLjY5NiAyLjIyOS0xLjc5OCAzLjIxOS0yLjU5NCA3LjAxNS01LjU5NiA4LjYzMS0xNS4yNDggMy41OTQtMjEuNTYycy0xNC43OTctNi45MDktMjEuODEyLTEuMzEyYy0uOTk5Ljc5MS0yLjM1NCAxLjgyMy0zLjI1IDIuNTk0LTMuOTI3IDMuMzc4LTYuMzUxIDYuNzE0LTkuNjU2IDEwLjIxOS03LjIxMiA3LjMyNi0xMy4xNzQgMTMuNDM4LTE5LjcxOSAxNy44NDQtMi44MzYgMS42NTEtNi45OSAxLjA4LTguODc1Ljk2OWwtNS41NjIgMy45NjljLTMxLjcxOS0zMy4yNjEtNzQuOTA1LTU0LjUyNS0xMjEuNDA2LTU4LjY1NmwtLjM0NC02LjUzMWMtMS45MDQtMS44MjItNC4yMDMtMy4zNzctNC43ODEtNy4zMTItLjYzNi03Ljg2NC40MjYtMTYuMzI1IDEuNjU2LTI2LjUzMS42NzktNC43NjkgMS44MDctOC43MyAyLTEzLjkwNi4wNDQtMS4xNzctLjAyNi0yLjg4NC0uMDMxLTQuMTU2LS4wMDEtOC45NzQtNi41NDgtMTYuMjUxLTE0LjYyNS0xNi4yNXptLTE4LjMxMiAxMTMuNDM4bC00LjM0NCA3Ni43MTktLjMxMi4xNTZjLS4yOTEgNi44NjMtNS45NCAxMi4zNDQtMTIuODc1IDEyLjM0NGExMi44MiAxMi44MiAwIDAgMS03LjU5NC0yLjQ2OWwtLjEyNS4wNjMtNjIuOTA2LTQ0LjU5NGMxOS4zMzQtMTkuMDExIDQ0LjA2My0zMy4wNiA3Mi41NjItMzkuNTMxIDUuMjA2LTEuMTgyIDEwLjQxLTIuMDU5IDE1LjU5NC0yLjY4N3ptMzYuNjU2IDBjMzMuMjczIDQuMDkyIDY0LjA0NSAxOS4xNTkgODcuNjI1IDQyLjI1bC02Mi41IDQ0LjMxMy0uMjE5LS4wOTRhMTIuOTEgMTIuOTEgMCAwIDEtMTcuNjg3LTIuMzc1Yy0xLjc3MS0yLjIyMS0yLjcwMS00LjgzMi0yLjgxMi03LjQ2OWwtLjA2Mi0uMDMxek0yMzIuMTI2IDI4My42Mmw1Ny40MzcgNTEuMzc1LS4wNjIuMzEzYTEyLjg4IDEyLjg4IDAgMCAxIDEuNjI1IDE3Ljc1IDEyLjg5IDEyLjg5IDAgMCAxLTYuNjg3IDQuNDA2bC0uMDYyLjI1LTczLjYyNSAyMS4yNWMtMy43NDctMzQuMjY1IDQuMzI5LTY3LjU3NCAyMS4zNzUtOTUuMzQ0em0yNTguMTU2LjAzMWM4LjUzNCAxMy44MzMgMTQuOTk3IDI5LjI4MiAxOC44NDQgNDYuMDMxIDMuODAxIDE2LjU0OCA0Ljc1NSAzMy4wNjcgMy4xODggNDkuMDMxbC03NC0yMS4zMTItLjA2Mi0uMzEyYy02LjYyNy0xLjgxMS0xMC42OTktOC41NTItOS4xNTYtMTUuMzEyLjYzMi0yLjc3IDIuMTAyLTUuMTEzIDQuMDk0LTYuODQ0bC0uMDMxLS4xNTYgNTcuMTI1LTUxLjEyNXptLTE0MC42NTYgNTUuMzEzaDIzLjUzMWwxNC42MjUgMTguMjgxLTUuMjUgMjIuODEzLTIxLjEyNSAxMC4xNTYtMjEuMTg3LTEwLjE4Ny01LjI1LTIyLjgxMnptNzUuNDM4IDYyLjU2M2ExMi44MyAxMi44MyAwIDAgMSAyLjk2OS4yMTlsLjEyNS0uMTU2IDc2LjE1NiAxMi44NzVjLTExLjE0NiAzMS4zMTMtMzIuNDczIDU4LjQ0LTYwLjk2OSA3Ni41OTRsLTI5LjU2Mi03MS40MDYuMDk0LS4xMjVjLTIuNzE2LTYuMzEuMDAyLTEzLjcxIDYuMjUtMTYuNzE5IDEuNi0uNzcgMy4yNzEtMS4xOTcgNC45MzgtMS4yODF6bS0xMjcuOTA2LjMxM2ExMi45IDEyLjkgMCAwIDEgMTIuMzc1IDEwLjAzMSAxMi43NyAxMi43NyAwIDAgMS0uNzE5IDcuOTM4bC4yMTkuMjgxLTI5LjI1IDcwLjY4OGMtMjcuMzQ3LTE3LjU0OS00OS4xMjktNDMuODI0LTYwLjc4MS03Ni4wNjJsNzUuNS0xMi44MTIuMTI1LjE1NmMuODQ1LS4xNTUgMS43MDEtLjIzIDIuNTMxLS4yMTl6bTYzLjc4MSAzMC45NjljMi4wMjQtLjA3NCA0LjA3OS4zNDEgNi4wMzEgMS4yODEgMi41NiAxLjIzMyA0LjUzNyAzLjE3MyA1Ljc4MSA1LjVoLjI4MWwzNy4yMTkgNjcuMjVjLTQuODMgMS42MTktOS43OTYgMy4wMDMtMTQuODc1IDQuMTU2LTI4LjQ2NSA2LjQ2My01Ni44MzkgNC41MDUtODIuNTMxLTQuMjVsMzcuMTI1LTY3LjEyNWguMDYzYTEyLjkxIDEyLjkxIDAgMCAxIDEwLjkwNi02LjgxMnoiIHN0cm9rZT0ibm9uZSIgc3Ryb2tlLXdpZHRoPSIuMjUiLz4mI3hhOzwvc3ZnPg==;fontColor=default;" parent="1" vertex="1">
          <mxGeometry x="1320" y="960" width="86.32" height="82" as="geometry" />
        </mxCell>
        <mxCell id="RQ8LQTlV_PO3ozZtlbeF-29" value="" style="image;aspect=fixed;html=1;points=[];align=center;fontSize=12;image=img/lib/azure2/app_services/App_Service_Environments.svg;" parent="1" vertex="1">
          <mxGeometry x="1324.66" y="796.5" width="77" height="77" as="geometry" />
        </mxCell>
        <mxCell id="RQ8LQTlV_PO3ozZtlbeF-32" value="" style="shape=image;html=1;verticalAlign=top;verticalLabelPosition=bottom;labelBackgroundColor=#ffffff;imageAspect=0;aspect=fixed;image=https://cdn1.iconfinder.com/data/icons/ionicons-fill-vol-2/512/logo-vercel-128.png" parent="1" vertex="1">
          <mxGeometry x="1120" y="620" width="80" height="80" as="geometry" />
        </mxCell>
        <mxCell id="RQ8LQTlV_PO3ozZtlbeF-34" value="&lt;font size=&quot;1&quot; style=&quot;&quot;&gt;&lt;b style=&quot;font-size: 12px;&quot;&gt;Host&lt;/b&gt;&lt;/font&gt;" style="text;html=1;strokeColor=none;fillColor=none;align=center;verticalAlign=middle;whiteSpace=wrap;rounded=0;" parent="1" vertex="1">
          <mxGeometry x="1110" y="730" width="60" height="30" as="geometry" />
        </mxCell>
        <mxCell id="RQ8LQTlV_PO3ozZtlbeF-35" value="&lt;font size=&quot;1&quot; style=&quot;&quot;&gt;&lt;b style=&quot;font-size: 12px;&quot;&gt;Apply&lt;/b&gt;&lt;/font&gt;" style="text;html=1;strokeColor=none;fillColor=none;align=center;verticalAlign=middle;whiteSpace=wrap;rounded=0;" parent="1" vertex="1">
          <mxGeometry x="1220" y="969" width="60" height="30" as="geometry" />
        </mxCell>
        <mxCell id="RQ8LQTlV_PO3ozZtlbeF-38" value="&lt;font size=&quot;1&quot; style=&quot;&quot;&gt;&lt;b style=&quot;font-size: 12px;&quot;&gt;Publish&lt;/b&gt;&lt;/font&gt;" style="text;html=1;strokeColor=none;fillColor=none;align=center;verticalAlign=middle;whiteSpace=wrap;rounded=0;" parent="1" vertex="1">
          <mxGeometry x="1220" y="795" width="60" height="30" as="geometry" />
        </mxCell>
        <mxCell id="ZG8WPkFlCRkD547cb5lm-2" value="" style="shape=image;verticalLabelPosition=bottom;labelBackgroundColor=default;verticalAlign=top;aspect=fixed;imageAspect=0;image=data:image/png,iVBORw0KGgoAAAANSUhEUgAAAMkAAAD7CAMAAAD3qkCRAAAAtFBMVEX///8IFzYyRm40SHEAACQAAB0HFjYAACUAACAAAC0AACIAACoAFDQAEjEAEjMAACcAABoADTEAABgACC+4usAtQGcoOl8QHz8MGzomOF3q6+34+PkcLE7d3+KmqbETI0NhZnXExsueoao/RlrS1NhOVGYgMVR5fYmOkpzu7/GEiJNyd4QfKUQqM0vMztOvsrlbYXA0PFEZJUAtNk2WmaIAABC9wMaJjZc9RFhVWmoAADFHTmAdAJbqAAAUjElEQVR4nO1deVfizNKfQPaEhBAEJAZQUVZBRnT08ft/r5ctvaXX0Dhz38Pvj3vumUc6qXTtVV3969cVV1xxxRVXXHHF/1+spqPPt9f5R3bWKll7/vr2OZquNL2VOraJFaRJlAa+O5lVXmU2sfwgjZI0sKIHjW8nj/FvMzIKBPG64jIDJwCrRObLWOs7SmFtJQaC0FpUWmZhhegyiVX1i1TGtmkbOJxvdWnJHh1iFbv1wxw2bxkleKkqa4y9tLxM689F3piBuVV+gx2bK77EtBXRlmn+IClbKiF7Dnu5l17kfumQDHqCNb3gu2MYlGQEbos1yqXWyF8t6obsYVs/JCv3TfSxYaOBvZLnLsS0jF8tXEJ2q6A6rPkjGixvos9sPNfqHRvbI6/53eYtkA0+mym+q+FtrX6L/sO7PJdWxixAtyDs1Gu1eq2LGQUjMf0Fw4OZtUctB7NEO24ybvar3KDrNvsXp2SDssWBkB3qdw3i5Tzf//7zkSPkZLPxerGxzJQUssawdgRKSrK8NCET1JQVhOxIubVLWiAJTCv4vfn+Go1en743keU6XlTWFY3nYhGMlOD1soS0Uf3buAXvsOONboN8xz2iJEnSNE2SKKT9ZyM0OnCR2g3yR+7gkoTMPERIkI953JaQqZyZaNzVsDU68HPYrpw+r4YnD30JjJC94N811GhpDG/INW4hKcnb5QhZI7xlD4mXOLDYUIGWRrdDWeIOMpi5vRQhMxNh417pJY603IV0gSBgU+nYr9CF3+JiqniE8FZ4Q6VkT8tzT7gxYWNIp2MP+Gfp12UIGSOePCHtOC31zp3RYIq/3WgMdyad/XNE6q3LmPoNYpq77Dc5EnNze9cLd74USo+9+we7e9fhkHH48R34UfT7EoSsXWRLWLyFUVPr3D7fDbu9Xm/3k153ePfcudn/sxDwQeYljMoSmpKQw1skOXuA/yf5I6iKo55+QtY+/FJ0vaUP9eElN+UF2ZLOhSmp3cBN0e5J3iNGkWITNQMRepcb61TAE3TmGxffEtSVTL71EpK3fnJLsE1p6XUk/wQ/uiWopARzrZR40JkSGEVNqA+LTQljnYSsoLw3bpHHQZz11rR1oM/i6nRZJtB3tE+Re722c0h2BtywgfWuRkWt84yuUzgB9W7xRK9a7pyOCBgT+xBf7RzeIeok2kaj0bvj+YV0Mmqdg3cGcgB7z6z7fAi/diFowV6pPkLG0OVq7L99Z0gLQuyGccf21Sl03OxcZorHHDa6h28CHuHqK6psY/CYXr1+26PmHo7EdG8lZaZ+22WHMQ3juQ5dlkBf7PgN/Hn7mZFDQV7iVoIU3uc4LtPrdIpN0WccM0QHD8Wx7e4lBLTUOwI6DsuAPQm98yqyEGNWkYH9EjzZ3+dg1NazdAnKIBY/DIdtsLel3jFU82KxLtcezUTIgkjJIYSobsgO3kgTJZ8Jdf3Ii31rB9cM0rL0hF0yK3dEt/ynduQFjun7ZuzRq0PJpx5CMo/CDVHshpOH1TjPx6v29NVz44T8K7vMYfWbEmdFgRu/LbaD9uqjvZ28+D6FmvA/PSLfb5aWTtzlFne284eN7xGfu0Hq43qH+IswcF+mmDhn95PIL9GiKYV37xPrRtYjrcUknwQB/qYEKWgm60BH7E1oWmn9QlbpfT1OZNvEl00TVkA6+xPjygFL8BGE2IG3ZTHNlCinOnrqjltcCTvfnG6b2QirQqKkEKyVtCYc5h97mJaJ9fgrkwBd1BH42G0Tq+oCBsN3xDY3/KB2FqGkeBMtlCxQjgmESefs20f104kUnJBQ3AfRj5EtTEdaKBkhHzl5kfjB1MJIOZSHb1FCkkBCgtG8VKqn6PgKKbHlPKA21uoUPt90MMOedqXSJQgvaPKGvyAlsoHoPUaK3cAikfRFrkFvBnV68njG+0PAPbEt2dzT6p3p/adLWYMNVU2kp+QI5SR5kv7R2GKQkvSkPY8cBN2assOQEhUDdW9RffcoUXA8QKFDEyVA8mxfxf1Z00iJYpXcKEhORTIqU2U9elkmG7epGm1K+muGauFwXfhf0abCe1PeqBA8ugaZBJZppTR34qsUoblqXgfITmnSwoPiy9B08Gx4sMWRT3lWFhLuudhBwNEvdlWTZQS+MMX7yZaFOggoei3H2wxTOo/kD4uvp8WWIkBZ8WRN3grYYwolC+gnu5TmxTXajJtENP17v2nFXpp4ceuzLG0O+8kVkL8VPFLmrhzRT9Ss1B/oPFHVVjaCreCJVUqhgO5VT0OP59oFjyo3X8xRh9+kWZtFsaGhS4kz+0ssYngnVwCxo22NziVkgXz1ss+wREWaLpbzQ3uznZoUTd3H46nd++Ie2cyEDw9+n1Wly1/QeDFMCf6ZYT3pNr341O5ajmk9UYxq1iXTTwEuD0iNYPcdm2fk79Ym/iiyCw57kmG0GB7VeLCmfs+nkr0hZG2AZyaao6qELJqEF0j6XUTWRTGXs6X5ABgPLghSg2UlDuu/ldLBpPJaEXuidDAoP6k1O/Atqwj+LUwtLMnEV0LVKgK0yf5ko+zI9XE5aSk9YH0we3bsz1d5/jFq7R8XOih39c2SD1rhwM6kRYsvyEjrP/SPFLO3q/1nSP3iXMP4xQ0CXA2vTcorBEslHp5tyCzgETFhoLAsvmpS6rXlNL+Q12rP/+AmZ0Q5Z7M3oAqdLCvaWZ3DKoSfuEJSxnZLNXnbfuDmN7KEHnbaLelPtmYfDXEJof6GJMd6smsQ9y7jJWxXUlg4B2VK7JW7oKxpsOLzj8nj97xCfY3OXAf4UqS0KYfJAEph6H3rqOK8gKHqZ4+WlyRBS1nnzGjyXsCSYLCcsyM7tMiPm79Zwc4lf2LYkqx7UgqmarA0oCudE97Fm7ykl+IKUGKe++liy1x3AZxd1RNLJbOIIUpEyaY590vsN0VJQ/WR+EQtP3IvKJ0HAgWTs/QFgFr4hrKIWvPcI583ylaawKu4YK2U9EJ9QFOlN3NVLm4S4GcpcnriEINScRzVpI5KfMGonCPgJ6nx8hVrBQXbgLozKpR8CLmcLykZWYemQiWNhnKXSlb5hau4jogi9u+Z/gEOXz7RUVFOpiINeoDFHtcwkWtQsV1poUeTL/6H7K9ySjRJQcAuVr5J7OkeqXQk8oDEnbQ0ER2PbI8LBZvNM57HhcGR7UZGgyXpMH/K87hQmKwVFDrSmpI8j0b6jiQh43fpt2B9m1KDChuhZEVn5sKTSpI1kCyR5HEOv5INKjwkoVwiBapT2bqxpJDswWzMUaHESOUcQqRIKWcYF1IK+AiTpQ2VKDE8KQUGRV6uAj5V6R5lWig1SoxgI1GPBmUpOaf+QVp96qTE8GRIKVzBQGZgx7ql1LaqjRLDk+jbKCIUGeYaKO2ITkqM9LeQlOxoUWQ6T7bCmORylBiJJ/zURyfSF5vShWqruFZKjEho7Q+H1cRnRbMnBfV7CUoMuykK7PcmRXhUdJxWaBTXS8nO5AlaGvN3IwwEhPxhJ3AvSkn4jLeZ0krxCBZ+qahL0PqmzllaKAnviI5Z2+dvy4JP6byFpB/k/Ucde7JvkO9hNozf/ctFu4dWAYNvfu5RKyWnvtku9o92UK2N4WPjom9uvqpESUxKPuQoKQ6ZDokuecd4UN2X9Rs29++oB7fSiofpC8tFWmDyQulMTOSkc4WMaX+a+Fh+Lno/6uo3YdbuBGZ8IkWJfYd0ypNjlcJAMLsLIGs/NQNcIrzklBLMZd2v8ygJ0WMYtfKRwMR0R2tB7iF/eGqR069C9wvwpkwqlEvJSoIScqzSMyVrmZqtl8VgTBWa2WqweGnFJf5J0VNlM6lcKCeOX0mkIHvkMR/6Sc3Ic6xgM5oOPlZ5/4Dxx3q7eFr6+yFe5T9v4h06U7nTekxKcrH+oxzz320LPTyyozRwTHd/JG33v67pxB7d7IVml1BCcglqdsxDOZBFvhxt8oL4pGV53hpKR0wWlH9hMxI4YOa7xDlImz77Rm3aFUnHlCJQMymDwGrD+vVLxF3s2Tc7WipMVDMSv8c4qyVzGtR2WYT8oh1cRMGbfXM47a5ERsQzPisJnyX8j0mJwHkTzL6p126HDTn1ue+uswyuQ2CLHUlO4umJ7yaIB63spzI0KJMSMdhhGjf/mwhqEFOxzCfslnBOp4ghN+pqP8/iNLmLSsN+aLefjB7E7pmEy8Kp3XK9hJCcNcijpvM87NnYXLXU8S0zeRlt7yXLKOJSI2emzAPXtErSUVBTv7m5hTN50sX6I++reP1ik0KxQwV4oVbpOLIMObVe8XP1cxfiiItTguU5XpWG+CDHGDmFWgaEHguncNlnS5mUuFMANkV9IuKrqCTUZKdys/9Yn8GWFndiU6DXL32CsAC/wWungniNURuWvrCr7cgOQOaVp1eJXHNuVy9rQ6uIO7kpYaJIScYY5FuA20w0Z2i+M2Z2wZFiEul6HN98l4PTIoEcuyO2pKK4HzYFjLJRPjbG+q4ncDt66Dq8qrgfAQ/Gs8MJpe9agKtCZtSvUF3cD5sCP6LiURi+yNset55Gc3Z4c2tlKAEui8IBaM53LSAYCf1FUV7nzhaFMm8pstdvnhMpOOO4LX+Gs6cm1oGdVx2bwu1PFRytKKchqekUNUoAe6kesCRPN2EQtIv1S+riHA18AtBeqsfcKRyC7ImggE6ypvwoYQ7Aao7aERWe5yX8KqXszPl0IMZRvhXyAF5BR9hkRYSN6ETO6pQA34vrYJQx5sRLQuOE//h8cT8A6GHFyJHX5S8OErCTd8yp9Ioo1ou6apSwc6rCCj/u2MunU/iAM1DlO4336PvM1JnE2X9s0KAWOlCLoibyMzYlEj5cDksPYeX4igSY5qrmRGblQ6YFZA6zICkNbTORgciLTvKQlLAIiWQCUOgi6JL3Gozm1TIsM+aeSPk9H0BhaLHvBwAnUm0EDFtOpHxRZEu1jdwGyisMVRz7PksL247UMnA0vTb2AsrL9lUoYVpGSSaFfps29oL+itJcA6a3IqkC+7CrXxt7ATWsNIn6g8Fd0kd5YKimITg5AoQoSmEjy6uXHhYH/WFt7AUMCrORiQZWhY5TOMGBqAxd7AUpUUlEsqqFprSw6WcvQImjQgmjQKcQG8CjFuelHxEAShQONbJOBymMKskge4Xil1SjRMGFZJgT21SwSZBBtYS/FSlhlD2V7nlAei00yXwV7mJUf9Uqll3AoZo8liq6i14/UbwtDE5H1iPzVbQwY96KtDE5YgbZS8umAEoUwl9GQd5SvOAdScnq2BRAifzhX0bHhvK9LugHOZ8Q6Hcp1LKfqBa+qTyDBtp5Hc4X8IXlZ3xlMS1grDCtE51/cDYhID6x5S8AoY8dqHJjI3R6zt8UEDMqDF2hjh2oNNQWPdp+9p4U2XpOmxyJiOZ0+ZVG8If6NgXkVuQ1D1UHK+aVCwzgpjTO3ZRCeOXNGrX/r+ptjTAbea6hr2AYA4qBj6rerIVuynmGHihhSzbao2ouv/KUzh4UurNcYqC6QupgXhpoPdxn3DSLXCdbvS+qhqQgpZMimUMxiypDB0mgV/yesSdA4KXrjLT8UHLOWPF75BzHGULfUfbpaTNsmso9oSi+dFxfWn8GWWFJgaedD/DOmyqOJgXIg03ylBRiIi2ytEYgpQloFMxhkFC5fgouipXtW6ENRIvVSvllZCnk2Kr8BayJrF2kdN5ouFa6jR7eqkQIcB/tppw1mVGkpKXhHiokdKvYMgEGkkpaE0onp5ab59DyfpVGQlgFkszazcpDVyI9NzQOEP0VqlxUeqIENEhIDsWkeMHnWHcU2J0Zyq4kbL+Rs9H9spQEIz2EoFcP7VxJ1S0BnR6SzFX2HSNyTn51oPorVJV6eH+6VFplXLYlTY2XMCNXahgNJQMJ5V3y5o9yP6qjdZj0b2R9NQcfSq3Ul12XIixBh7MqcrTvoiGvwOrPan2p5UPYYaznlkkAzNQrkAK6nh2pXERJ3G2dQnLEBC0whfTbVjlbEgYy+uejdFDMlRlgpohvrwIp4AdSjV1ZKaES6LnqiHgMNqFbipT6HTxvJqOCS7zFuCPpXPRjNCSV8VtAYCK3JW3Sukf8IybVMXbRzadc50tuyRDccC9TbOiTvBU5Z12owwN+K55oV5ADplJbQg7nDJX6jhSB3y8g6l2F2yfTIkcO57Rbak34ilhj4z+44Qp0HQ1H4u6CB0JIQtlxuXpI4SQp6iB6l6oVrN5/mBByjGY4ZFFyA//IErNJHuPSHjUvylpH4BfH2j26Yal3AcGeuI7VD3EPOKxSTlTHPT4n0KbJPWITJZoWZ8QVYdHPELJjhQB7MEXu0YuKXWGoOOvi+jeKL6h+cfSXmFvRKAkLPMJopMICej/CdyS1NfvxPGSPWCeGTdp74MsboSOy7mN8h41A8mJjXRjhsR3OYVDaxfe3fJjEVfFP2tIPkpjioUTUBToMulsSMficuOFY/Q6z87Fu4R+zKNrXh/DdRF55/xOvwilclaUTY+L+sJ3g1/HZiiKv/OGd1L4/YA9pmD3iTp+9My3YkEh+PW28IY6XeL2LefFCTIgbHBtDjBCeJZktLCKzZX7/tKyjWPvE6yBf2edJ+8ALiHmQLdUpJprRf2FNZYo5yYT20iTiw+RviQiCRZPaM067k/mEQc8nfmI7bz9o15lo00ZoR6wBNfnccUjSI+svc1aB2cgqN/7Yr+uyCh5P35pBKRcf9M7qGdCKtleuQ6WmuZmv8xM5WX88GHWtoMyJYWv0N3UWiWzRokhLEphWsHx7fHpcRrHrpDSBCoK/L+o4Vr9JdXTisihKkoQ1LClpLf6lDTnhIZAcCwwQuZsfi6mUkC1c0ZRPFGEcVeo0/RHkI0uWljAOaKNf/x3ki1ZZzdLocKY/GxpWwGzulkwfDjsxA8YI238NgxeXYjhOiAL389+VjxLy+dKN05LqDdPYXf75e1FINeQPX0nTDNKdLbFtO0zSnZlMviRmv/6LyPL2fPTZTT0vSD5H8zZ98PsVV1xxxRVXXHHFFf9T+D92tKBGYDbuEwAAAABJRU5ErkJggg==;" vertex="1" parent="1">
          <mxGeometry x="651.2" y="798.5" width="58.46" height="73" as="geometry" />
        </mxCell>
        <mxCell id="ZG8WPkFlCRkD547cb5lm-4" value="&lt;font size=&quot;1&quot; style=&quot;&quot;&gt;&lt;b style=&quot;font-size: 12px;&quot;&gt;Scanning&lt;/b&gt;&lt;/font&gt;" style="text;html=1;strokeColor=none;fillColor=none;align=center;verticalAlign=middle;whiteSpace=wrap;rounded=0;rotation=0;" vertex="1" parent="1">
          <mxGeometry x="720" y="810" width="100" height="30" as="geometry" />
        </mxCell>
      </root>
    </mxGraphModel>
  </diagram>
</mxfile>
